<?xml version="1.0" encoding="utf-8"?>
<!-- Generator: Adobe Illustrator 24.1.2, SVG Export Plug-In . SVG Version: 6.00 Build 0)  -->
<svg version="1.1" id="Layer_1" focusable="false" xmlns="http://www.w3.org/2000/svg" xmlns:xlink="http://www.w3.org/1999/xlink"
	 x="0px" y="0px" viewBox="0 0 64 64" style="enable-background:new 0 0 64 64;" xml:space="preserve">
<style type="text/css">
	.st0{fill:#FFFFFF;}
</style>
<path class="st0" d="M62.1,24c0.5-0.4,1.2,0,1.2,0.6v25c0,3.2-2.6,5.9-5.9,5.9H6.5c-3.2,0-5.9-2.6-5.9-5.9v-25c0-0.6,0.7-1,1.2-0.6
	c2.7,2.1,6.4,4.8,18.9,13.9c2.6,1.9,6.9,5.9,11.3,5.8c4.4,0,8.8-4,11.3-5.8C55.8,28.9,59.4,26.1,62.1,24z M32,39.8
	c2.8,0,6.9-3.6,9-5.1C57.2,23,58.4,21.9,62.2,19c0.7-0.6,1.1-1.4,1.1-2.3v-2.3c0-3.2-2.6-5.9-5.9-5.9H6.5c-3.2,0-5.9,2.6-5.9,5.9
	v2.3c0,0.9,0.4,1.8,1.1,2.3c3.7,2.9,5,4,21.2,15.8C25.1,36.2,29.1,39.9,32,39.8L32,39.8z"/>
</svg>
