<?xml version="1.0" encoding="utf-8"?>
<!-- Generator: Adobe Illustrator 24.1.2, SVG Export Plug-In . SVG Version: 6.00 Build 0)  -->
<svg version="1.1" id="Layer_1" focusable="false" xmlns="http://www.w3.org/2000/svg" xmlns:xlink="http://www.w3.org/1999/xlink"
	 x="0px" y="0px" viewBox="0 0 47.2 54" style="enable-background:new 0 0 47.2 54;" xml:space="preserve">
<style type="text/css">
	.st0{fill:#FFFFFF;}
</style>
<path class="st0" d="M42.1,3.5H5.2c-2.8,0-5,2.3-5,5v36.9c0,2.8,2.3,5,5,5h14.4v-16H13V27h6.6v-5.7c0-6.5,3.9-10.1,9.8-10.1
	c2.8,0,5.8,0.5,5.8,0.5v6.4h-3.3c-3.2,0-4.2,2-4.2,4.1V27h7.2l-1.2,7.5h-6.1v16h14.4c2.8,0,5-2.3,5-5V8.5
	C47.1,5.8,44.9,3.5,42.1,3.5z"/>
</svg>
