<?xml version="1.0" encoding="utf-8"?>
<!-- Generator: Adobe Illustrator 24.1.2, SVG Export Plug-In . SVG Version: 6.00 Build 0)  -->
<svg version="1.1" id="Layer_1" focusable="false" xmlns="http://www.w3.org/2000/svg" xmlns:xlink="http://www.w3.org/1999/xlink"
	 x="0px" y="0px" viewBox="0 0 47 64" style="enable-background:new 0 0 47 64;" xml:space="preserve">
<style type="text/css">
	.st0{fill:#FFFFFF;}
</style>
<path class="st0" d="M43.6,8.5H3.3C1.5,8.5,0,10,0,11.9v40.2c0,1.9,1.5,3.4,3.3,3.4h40.3c1.8,0,3.4-1.5,3.4-3.4V11.9
	C47,10,45.5,8.5,43.6,8.5z M14.2,48.8h-7V26.4h7L14.2,48.8L14.2,48.8z M10.7,23.3c-2.2,0-4-1.8-4-4s1.8-4,4-4c2.2,0,4,1.8,4,4
	C14.8,21.5,13,23.3,10.7,23.3z M40.3,48.8h-7V37.9c0-2.6-0.1-5.9-3.6-5.9c-3.6,0-4.2,2.8-4.2,5.8v11.1h-7V26.4h6.7v3.1h0.1
	c0.9-1.8,3.2-3.6,6.6-3.6c7,0,8.4,4.6,8.4,10.7V48.8z"/>
</svg>
