<?xml version="1.0" encoding="utf-8"?>
<!-- Generator: Adobe Illustrator 24.1.2, SVG Export Plug-In . SVG Version: 6.00 Build 0)  -->
<svg version="1.1" id="Layer_1" focusable="false" xmlns="http://www.w3.org/2000/svg" xmlns:xlink="http://www.w3.org/1999/xlink"
	 x="0px" y="0px" viewBox="0 0 48.2 55.1" style="enable-background:new 0 0 48.2 55.1;" xml:space="preserve">
<style type="text/css">
	.st0{fill:#FFFFFF;}
</style>
<path class="st0" d="M42.6,4.1H5.6c-2.8,0-5,2.3-5,5V46c0,2.8,2.3,5,5,5h36.9c2.8,0,5-2.3,5-5V9.1C47.6,6.3,45.4,4.1,42.6,4.1z
	 M37.4,20.7c0,0.3,0,0.6,0,0.9c0,9.1-6.9,19.6-19.6,19.6c-3.9,0-7.5-1.1-10.6-3.1c0.6,0.1,1.1,0.1,1.7,0.1c3.2,0,6.2-1.1,8.5-2.9
	c-3-0.1-5.6-2-6.4-4.8c1.1,0.2,2,0.2,3.1-0.1c-3.1-0.6-5.5-3.4-5.5-6.8v-0.1c0.9,0.5,2,0.8,3.1,0.9c-1.9-1.3-3.1-3.4-3.1-5.7
	c0-1.3,0.3-2.5,0.9-3.5c3.4,4.2,8.5,6.9,14.2,7.2c-1-4.7,2.5-8.5,6.7-8.5c2,0,3.8,0.8,5,2.2c1.6-0.3,3-0.9,4.4-1.7
	c-0.5,1.6-1.6,2.9-3,3.8c1.4-0.1,2.7-0.5,4-1.1C40,18.5,38.8,19.7,37.4,20.7z"/>
</svg>
