<?xml version="1.0" encoding="UTF-8" standalone="no"?>
<!-- Created with Inkscape (http://www.inkscape.org/) -->

<svg
   xmlns:dc="http://purl.org/dc/elements/1.1/"
   xmlns:cc="http://creativecommons.org/ns#"
   xmlns:rdf="http://www.w3.org/1999/02/22-rdf-syntax-ns#"
   xmlns:svg="http://www.w3.org/2000/svg"
   xmlns="http://www.w3.org/2000/svg"
   xmlns:sodipodi="http://sodipodi.sourceforge.net/DTD/sodipodi-0.dtd"
   xmlns:inkscape="http://www.inkscape.org/namespaces/inkscape"
   version="1.1"
   id="svg2"
   xml:space="preserve"
   width="722.13361"
   height="203.59999"
   viewBox="0 0 722.13361 203.59999"
   sodipodi:docname="ibdgc_logo.svg"
   inkscape:version="0.92.5 (2060ec1f9f, 2020-04-08)"><metadata
     id="metadata8"><rdf:RDF><cc:Work
         rdf:about=""><dc:format>image/svg+xml</dc:format><dc:type
           rdf:resource="http://purl.org/dc/dcmitype/StillImage" /><dc:title></dc:title></cc:Work></rdf:RDF></metadata><defs
     id="defs6"><clipPath
       clipPathUnits="userSpaceOnUse"
       id="clipPath20"><path
         d="M 0,185 H 594 V 0 H 0 Z"
         id="path18"
         inkscape:connector-curvature="0" /></clipPath></defs><sodipodi:namedview
     pagecolor="#ffffff"
     bordercolor="#666666"
     borderopacity="1"
     objecttolerance="10"
     gridtolerance="10"
     guidetolerance="10"
     inkscape:pageopacity="0"
     inkscape:pageshadow="2"
     inkscape:window-width="2512"
     inkscape:window-height="1383"
     id="namedview4"
     showgrid="false"
     fit-margin-top="0"
     fit-margin-left="0"
     fit-margin-right="0"
     fit-margin-bottom="0"
     inkscape:zoom="0.47979798"
     inkscape:cx="370.10526"
     inkscape:cy="101.60027"
     inkscape:window-x="1128"
     inkscape:window-y="724"
     inkscape:window-maximized="1"
     inkscape:current-layer="g10" /><g
     id="g10"
     inkscape:groupmode="layer"
     inkscape:label="IBDGRC-2020-logo-v4"
     transform="matrix(1.3333333,0,0,-1.3333333,-38.399999,225.33306)"><g
       id="g875"><path
         inkscape:connector-curvature="0"
         id="path12"
         style="fill:#3f516c;fill-opacity:1;fill-rule:nonzero;stroke:none"
         d="m 28.8,161.4 h 5.4 V 24 h -5.4 z" /><g
         id="g14"><g
           clip-path="url(#clipPath20)"
           id="g16"><g
             transform="translate(118.2002,91.7998)"
             id="g22"><path
               inkscape:connector-curvature="0"
               id="path24"
               style="fill:#3f516c;fill-opacity:1;fill-rule:nonzero;stroke:none"
               d="m 0,0 h -56.2 v -63 h 55.9 c 16.5,0 27.1,10.4 27.1,30.601 C 26.8,-13.7 17,0 0,0 M -7.7,64.9 H -56.2 V 4.5 h 54.5 c 9.2,0 19.3,11.3 19.3,30.8 0,17.3 -9.8,29.6 -25.3,29.6 M -61.4,-67.8 V 69.6 H -8.5 C 11.5,69.6 23,55.5 23,35.5 23,21.1 16.7,6.3 6.5,3.1 23.4,1 32.3,-13.3 32.3,-32.2 32.3,-54.1 21,-67.899 -2,-67.899 Z" /></g><g
             transform="translate(256.5,94.1001)"
             id="g26"><path
               inkscape:connector-curvature="0"
               id="path28"
               style="fill:#3f516c;fill-opacity:1;fill-rule:nonzero;stroke:none"
               d="m 0,0 c 0.2,28.5 -2.4,45.4 -10.3,53.2 -6.8,6.8 -15.1,9.2 -29.2,9.2 H -83.3 V -65.3 H -40 c 15,0 24.2,2.4 30.8,10.1 7.8,9.1 9,25.3 9.2,55.2 M -39.3,-70.1 H -88.5 V 67.3 h 48 C -24.7,67.3 -14.1,64.5 -6.4,57 2.5,48.3 5.4,30.6 5.4,0.1 5.4,-30.5 3.1,-48.8 -5,-58.2 c -7.7,-8.6 -17.9,-11.9 -34.3,-11.9" /></g><g
             transform="translate(454.8506,122.7964)"
             id="g30"><path
               inkscape:connector-curvature="0"
               id="path32"
               style="fill:#44be94;fill-opacity:1;fill-rule:nonzero;stroke:none"
               d="M 0,0 4.4,0.007 4.5,-60.292 0.1,-60.3 Z" /></g><g
             transform="translate(316.8936,142.6553)"
             id="g34"><path
               inkscape:connector-curvature="0"
               id="path36"
               style="fill:#44be94;fill-opacity:1;fill-rule:nonzero;stroke:none"
               d="m 0,0 64.9,0.288 0.02,-4.4 L 0.02,-4.4 Z" /></g><g
             transform="translate(291.3047,92.2832)"
             id="g38"><path
               inkscape:connector-curvature="0"
               id="path40"
               style="fill:#44be94;fill-opacity:1;fill-rule:nonzero;stroke:none"
               d="M 0,0 3.776,2.259 34.791,-49.57 31.016,-51.829 Z" /></g><g
             transform="translate(387.2002,26.5)"
             id="g42"><path
               inkscape:connector-curvature="0"
               id="path44"
               style="fill:#44be94;fill-opacity:1;fill-rule:nonzero;stroke:none"
               d="m 0,0 h -76.4 l -38.2,66.1 37.999,66.2 H -1.4 v -4.4 H -74 L -109.6,66.1 -73.8,4.4 H -2.601 L 31.8,64 -40.7,63.7 v 4.4 l 80.099,0.3 z" /></g><g
             transform="translate(504.7002,16.2998)"
             id="g46"><path
               inkscape:connector-curvature="0"
               id="path48"
               style="fill:#44be94;fill-opacity:1;fill-rule:nonzero;stroke:none"
               d="m 0,0 -65.9,38.601 0.4,76.399 66.399,37.7 64.801,-38 -2.2,-3.8 -62.601,36.8 -62,-35.3 L -61.5,41.2 0,5 63,40.9 65.2,37.101 Z" /></g></g></g></g></g></svg>